<svg xmlns="http://www.w3.org/2000/svg" version="1.1" xmlns:xlink="http://www.w3.org/1999/xlink" xmlns:svgjs="http://svgjs.dev/svgjs" width="1000" height="1000" viewBox="0 0 1000 1000"><rect width="1000" height="1000" fill="#046380"></rect><g transform="matrix(0.7,0,0,0.7,149.57575757575756,371.8940318995643)"><svg viewBox="0 0 396 145" data-background-color="#046380" preserveAspectRatio="xMidYMid meet" height="366" width="1000" xmlns="http://www.w3.org/2000/svg" xmlns:xlink="http://www.w3.org/1999/xlink"><g id="tight-bounds" transform="matrix(1,0,0,1,0.2400000000000091,0.003377730535447654)"><svg viewBox="0 0 395.52 144.9932445389291" height="144.9932445389291" width="395.52"><g><svg viewBox="0 0 395.52 144.9932445389291" height="144.9932445389291" width="395.52"><g><svg viewBox="0 0 812.0260813620097 297.67975370881425" height="144.9932445389291" width="395.52"><g transform="matrix(1,0,0,1,416.5060813620097,81.24914153566516)"><svg viewBox="0 0 395.52 135.18147063748393" height="135.18147063748393" width="395.52"><g id="textblocktransform"><svg viewBox="0 0 395.52 135.18147063748393" height="135.18147063748393" width="395.52" id="textblock"><g><svg viewBox="0 0 395.52 135.18147063748393" height="135.18147063748393" width="395.52"><g transform="matrix(1,0,0,1,0,0)"><svg width="395.52" viewBox="-4.445430192731064 -32.93355620278321 128.72278646755177 43.99508226302049" height="135.18147063748393" data-palette-color="#ffffff"><path d="M13.446 8.841v0c-1.354 0.563-2.49 0.722-3.409 0.476-0.918-0.246-1.702-0.837-2.351-1.773-0.64-0.932-1.256-2.109-1.848-3.532v0l-5.491-13.203-2.982 1.24c-0.525-1.262-0.891-2.185-1.098-2.771-0.205-0.579-0.272-0.984-0.203-1.215 0.07-0.231 0.262-0.412 0.576-0.543v0l1.995-0.829-2.896-6.962c-0.223-0.536-0.244-0.96-0.064-1.273 0.184-0.322 0.611-0.648 1.283-0.978 0.675-0.339 1.659-0.777 2.952-1.314v0l3.544 8.522 4.174-1.735c0.512 1.231 0.879 2.14 1.101 2.726 0.225 0.592 0.302 1.004 0.232 1.235-0.067 0.237-0.258 0.421-0.572 0.552v0l-3.222 1.34 5.472 13.158c0.184 0.443 0.386 0.876 0.605 1.297 0.215 0.43 0.467 0.733 0.757 0.909 0.296 0.173 0.665 0.167 1.108-0.017v0c0.474-0.197 0.88-0.42 1.217-0.668 0.341-0.257 0.703-0.592 1.087-1.005v0c0.179 0.258 0.382 0.571 0.607 0.939 0.232 0.366 0.446 0.786 0.643 1.26v0c0.289 0.696 0.275 1.312-0.043 1.848-0.312 0.534-0.768 0.991-1.369 1.371-0.6 0.38-1.202 0.695-1.805 0.945zM19.155 6.143v0l-7.019-22.784c0.689-0.889 1.547-1.725 2.575-2.509 1.028-0.784 2.195-1.377 3.502-1.78v0c1.306-0.402 2.246-0.486 2.82-0.251 0.575 0.235 0.983 0.744 1.224 1.527v0c0.102 0.331 0.204 0.774 0.305 1.329 0.097 0.563 0.135 1.151 0.115 1.765v0c-0.424-0.086-0.808-0.11-1.153-0.074-0.345 0.036-0.682 0.106-1.014 0.207v0c-0.389 0.12-0.78 0.321-1.174 0.603-0.401 0.284-0.75 0.632-1.049 1.045v0l5.628 18.44c0.1 0.325 0.101 0.565 0.003 0.721-0.092 0.154-0.484 0.355-1.175 0.603-0.697 0.25-1.893 0.636-3.588 1.158zM30.75 2.8v0l-5.204-22.743c-0.175-0.767-0.148-1.334 0.082-1.701 0.231-0.367 0.706-0.668 1.425-0.9 0.719-0.233 1.778-0.509 3.176-0.83v0l5.5 24.039c0.076 0.331 0.052 0.573-0.07 0.724-0.123 0.151-0.538 0.325-1.245 0.521-0.714 0.198-1.935 0.494-3.664 0.89zM26.873-25.396v0c-0.767 0.175-1.429 0.047-1.986-0.387-0.551-0.435-0.991-1.37-1.32-2.806v0c-0.244-1.066-0.217-1.981 0.08-2.747 0.295-0.772 0.927-1.269 1.895-1.49v0c0.929-0.213 1.627-0.109 2.092 0.311 0.465 0.42 0.843 1.264 1.133 2.531v0c0.283 1.235 0.263 2.255-0.059 3.06-0.327 0.813-0.939 1.323-1.835 1.528zM42.155 11.013v0c-0.88 0.109-1.534 0.036-1.962-0.221-0.428-0.256-0.697-0.827-0.807-1.713v0l-3.935-31.747c0.937-0.734 2.045-1.362 3.323-1.884 1.279-0.521 2.597-0.866 3.953-1.034v0c1.634-0.203 3.106-0.089 4.415 0.34 1.309 0.422 2.394 1.346 3.256 2.77 0.868 1.424 1.475 3.525 1.819 6.304v0c0.336 2.713 0.502 5.026 0.498 6.942-0.004 1.915-0.154 3.502-0.448 4.761-0.287 1.258-0.689 2.245-1.205 2.961-0.516 0.716-1.095 1.244-1.738 1.586-0.65 0.336-1.349 0.55-2.097 0.642v0c-0.774 0.096-1.47 0.088-2.089-0.023-0.618-0.111-1.153-0.331-1.603-0.658v0l1.269 10.232c-0.398 0.15-0.83 0.298-1.296 0.443-0.459 0.144-0.91 0.244-1.353 0.299zM44.983-3.647v0c0.304-0.038 0.604-0.196 0.898-0.474 0.295-0.278 0.549-0.8 0.764-1.566 0.214-0.765 0.316-1.897 0.305-3.393-0.017-1.496-0.182-3.501-0.494-6.015v0c-0.218-1.76-0.476-3.078-0.773-3.955-0.297-0.877-0.66-1.453-1.09-1.729-0.43-0.269-0.965-0.364-1.608-0.284v0c-0.748 0.093-1.397 0.412-1.947 0.957v0l1.924 15.521c0.321 0.37 0.646 0.632 0.974 0.786 0.327 0.148 0.676 0.198 1.047 0.152zM60.882 0.067v0c-1.673-0.011-3.098-0.235-4.276-0.669-1.177-0.435-1.762-1.182-1.755-2.242v0c0.003-0.373 0.066-0.826 0.19-1.359 0.124-0.526 0.341-1.061 0.651-1.605v0c0.751 0.412 1.518 0.717 2.304 0.916 0.785 0.192 1.588 0.291 2.408 0.296v0c1.02 0.007 1.798-0.211 2.334-0.654 0.53-0.443 0.797-1.055 0.803-1.834v0c0.003-0.48-0.087-0.987-0.27-1.522-0.183-0.528-0.562-1.101-1.138-1.718v0l-4.639-4.602c-0.947-0.96-1.614-1.911-2-2.854-0.387-0.943-0.578-1.807-0.572-2.594v0c0.008-1.2 0.296-2.268 0.862-3.204 0.573-0.936 1.478-1.673 2.715-2.211 1.23-0.538 2.872-0.8 4.926-0.787v0c1.847 0.013 3.219 0.202 4.116 0.569 0.904 0.366 1.501 0.78 1.791 1.242 0.283 0.462 0.424 0.916 0.421 1.363v0c-0.006 0.887-0.368 1.721-1.087 2.502v0c-0.717-0.412-1.452-0.707-2.204-0.885-0.746-0.172-1.548-0.261-2.408-0.266v0c-0.953-0.007-1.688 0.148-2.204 0.465-0.516 0.323-0.775 0.775-0.779 1.354v0c-0.002 0.307 0.099 0.667 0.303 1.082 0.204 0.408 0.66 0.975 1.368 1.7v0l4.073 3.868c1.052 1.141 1.765 2.172 2.139 3.095 0.367 0.923 0.546 2.034 0.537 3.333v0c-0.016 2.26-0.798 4.031-2.346 5.314-1.542 1.289-3.63 1.925-6.263 1.907zM71.483 9.975v0c-1.757-0.24-2.918-0.631-3.483-1.172-0.565-0.542-0.804-1.133-0.716-1.774v0c0.065-0.476 0.194-0.976 0.386-1.501 0.193-0.525 0.431-0.94 0.716-1.245v0c0.272 0.273 0.712 0.528 1.318 0.766 0.599 0.243 1.239 0.412 1.919 0.504v0c0.68 0.093 1.326-0.149 1.936-0.724 0.609-0.569 1.156-1.736 1.639-3.5v0l-2.341-25.624c-0.034-0.489 0.011-0.819 0.135-0.99 0.124-0.171 0.562-0.223 1.313-0.154 0.751 0.069 2.025 0.226 3.822 0.472v0l0.519 10.154c0.057 1.111 0.083 2.245 0.08 3.402-0.003 1.157-0.02 2.241-0.051 3.253-0.037 1.011-0.055 1.829-0.053 2.455 0.003 0.619 0.004 0.929 0.004 0.93v0c0 0 0.065-0.301 0.194-0.902 0.137-0.607 0.322-1.393 0.555-2.357 0.24-0.97 0.505-2.02 0.794-3.152 0.297-1.137 0.602-2.236 0.915-3.296v0l2.529-8.243c0.136-0.5 0.308-0.829 0.519-0.989 0.217-0.159 0.709-0.213 1.475-0.162 0.766 0.058 2.014 0.205 3.745 0.441v0l-9.533 25.807c-0.776 2.135-1.554 3.788-2.333 4.96-0.779 1.172-1.646 1.952-2.6 2.339-0.947 0.382-2.081 0.483-3.403 0.302zM86.51 2.169v0l6.083-23.681c0.63-0.12 1.423-0.192 2.379-0.215 0.961-0.015 1.956 0.021 2.987 0.107 1.038 0.088 1.97 0.238 2.796 0.449v0c1.724 0.443 3.048 0.996 3.972 1.661 0.925 0.658 1.505 1.522 1.739 2.594 0.242 1.067 0.151 2.427-0.274 4.08v0l-4.593 17.88c-0.085 0.329-0.226 0.531-0.424 0.604-0.198 0.073-0.656 0.035-1.374-0.116-0.719-0.15-1.94-0.447-3.664-0.89v0l4.439-17.279c0.357-1.388 0.471-2.381 0.342-2.978-0.129-0.597-0.622-1.007-1.481-1.227v0c-0.4-0.103-0.842-0.165-1.326-0.186-0.49-0.023-0.933 0.056-1.331 0.236v0l-4.963 19.323c-0.085 0.329-0.216 0.533-0.395 0.611-0.185 0.076-0.637 0.04-1.355-0.111-0.719-0.15-1.904-0.438-3.557-0.862zM109.762 10.022v0c-1.206-0.484-2.192-1.063-2.956-1.736-0.758-0.671-1.262-1.545-1.512-2.622-0.25-1.077-0.196-2.446 0.161-4.105 0.351-1.662 1.024-3.731 2.018-6.206v0c1.148-2.858 2.319-5.042 3.514-6.552 1.193-1.504 2.376-2.527 3.549-3.069 1.179-0.539 2.324-0.752 3.434-0.636 1.119 0.112 2.17 0.365 3.154 0.76v0c1.138 0.457 1.999 1.043 2.581 1.758 0.576 0.713 0.717 1.434 0.424 2.164v0c-0.127 0.316-0.313 0.69-0.558 1.123-0.248 0.439-0.554 0.88-0.919 1.322v0c-0.307-0.346-0.716-0.704-1.228-1.075-0.512-0.371-1.053-0.67-1.622-0.899v0c-0.445-0.179-0.937-0.269-1.476-0.269-0.535 0.008-1.109 0.23-1.722 0.666-0.62 0.434-1.26 1.179-1.921 2.236-0.67 1.06-1.387 2.543-2.153 4.448v0c-0.584 1.454-1.017 2.695-1.301 3.723-0.284 1.028-0.401 1.894-0.352 2.596 0.055 0.704 0.255 1.262 0.599 1.674 0.349 0.42 0.857 0.764 1.525 1.032v0c0.6 0.241 1.236 0.403 1.907 0.486 0.662 0.086 1.23 0.095 1.703 0.026v0c-0.061 0.6-0.141 1.111-0.238 1.532-0.091 0.423-0.213 0.827-0.367 1.21v0c-0.306 0.761-1.042 1.173-2.21 1.236-1.167 0.063-2.512-0.211-4.034-0.823z" opacity="1" transform="matrix(1,0,0,1,0,0)" fill="#ffffff" class="wordmark-text-0" data-fill-palette-color="primary" id="text-0"></path></svg></g></svg></g></svg></g></svg></g><g><svg viewBox="0 0 366.64704 297.67975370881425" height="297.67975370881425" width="366.64704"><g><svg xmlns="http://www.w3.org/2000/svg" xmlns:xlink="http://www.w3.org/1999/xlink" version="1.1" x="0" y="0" viewBox="2.7399999999999984 14.22300008440624 91.98700000000001 74.68399991559376" enable-background="new 0 0 100 100" xml:space="preserve" height="297.67975370881425" width="366.64704" class="icon-icon-0" data-fill-palette-color="accent" id="icon-0"><g fill="#ffffff" data-fill-palette-color="accent"><g fill="#ffffff" data-fill-palette-color="accent"><rect x="46.409" y="15.582" width="1.057" height="7.102" fill="#ffffff" data-fill-palette-color="accent"></rect><circle cx="46.897" cy="15.721" r="1.5" fill="#ffffff" data-fill-palette-color="accent"></circle><path d="M84.384 43.927l-3.867-14.708c0-4.674-3.789-8.463-8.46-8.463H24.45c-4.673 0-8.462 3.79-8.462 8.463L13.17 43.927c0 11.738-4.234 5.899 11.28 5.899h47.606C89.425 49.826 84.384 55.79 84.384 43.927zM76.567 48.374c-1.616-0.357-4.263-0.79-8.545-0.79H28.163c-4.444 0-6.952 0.572-8.33 0.931-1.73 0.451-1.676 0.56-1.431-1.221 0.131-0.943 0.314-2.413 0.314-4.651l2.358-12.315c0-3.913 3.174-7.086 7.088-7.086h39.859c3.912 0 7.085 3.173 7.085 7.086l3.24 12.315c0 2.275 0.22 3.761 0.387 4.71C79.081 49.327 79.182 48.952 76.567 48.374z" fill="#ffffff" data-fill-palette-color="accent"></path><path d="M8.963 70.662c0 2.959-1.393 5.352-3.111 5.352l0 0c-1.72 0-3.112-2.393-3.112-5.352v-8.179c0-2.956 1.393-5.352 3.112-5.352l0 0c1.719 0 3.111 2.396 3.111 5.352V70.662z" fill="#ffffff" data-fill-palette-color="accent"></path><path d="M94.111 70.662c0 2.959-1.392 5.352-3.111 5.352l0 0c-1.719 0-3.112-2.393-3.112-5.352v-8.179c0-2.956 1.394-5.352 3.112-5.352l0 0c1.72 0 3.111 2.396 3.111 5.352V70.662z" fill="#ffffff" data-fill-palette-color="accent"></path><path d="M12.642 82.577c0 3.498-1.901 6.33-4.248 6.33l0 0c-2.344 0-4.247-2.832-4.247-6.33V72.571c0-3.498 1.903-6.334 4.247-6.334l0 0c2.347 0 4.248 2.836 4.248 6.334V82.577z" fill="#ffffff" data-fill-palette-color="accent"></path><path d="M93.167 82.575c0 3.496-1.813 6.332-4.049 6.332l0 0c-2.236 0-4.054-2.836-4.054-6.332V72.57c0-3.496 1.817-6.333 4.054-6.333l0 0c2.235 0 4.049 2.837 4.049 6.333V82.575z" fill="#ffffff" data-fill-palette-color="accent"></path><path d="M92.79 56.764c0-6.471-2.321-11.715-5.182-11.715H9.185c-2.863 0-5.184 5.244-5.184 11.715 0 0.625 0.028 1.232 0.069 1.83H4.001v14.283H92.79V58.594h-0.068C92.763 57.997 92.79 57.389 92.79 56.764zM17.845 65.736c-2.983 0-5.401-2.419-5.401-5.401 0-2.981 2.418-5.4 5.401-5.4 2.98 0 5.401 2.419 5.401 5.4C23.246 63.316 20.825 65.736 17.845 65.736zM25.934 68.423c-1.486 0-2.688-1.203-2.688-2.688s1.201-2.689 2.688-2.689c1.485 0 2.69 1.205 2.69 2.689S27.419 68.423 25.934 68.423zM64.415 63.047H33.292v-4.453h31.123V63.047zM71.978 68.423c-1.488 0-2.689-1.203-2.689-2.688s1.201-2.689 2.689-2.689c1.481 0 2.689 1.205 2.689 2.689S73.459 68.423 71.978 68.423zM80.067 65.736c-2.981 0-5.4-2.419-5.4-5.401 0-2.981 2.419-5.4 5.4-5.4s5.4 2.419 5.4 5.4C85.468 63.316 83.049 65.736 80.067 65.736z" fill="#ffffff" data-fill-palette-color="accent"></path><path d="M9.643 81.377h78.423c2.068 0 3.849-3.115 4.68-7.608H4.96C5.792 78.262 7.572 81.377 9.643 81.377z" fill="#ffffff" data-fill-palette-color="accent"></path></g><path d="M16.417 42.639c0 1.535-1.244 2.78-2.78 2.78H5.52c-1.534 0-2.78-1.246-2.78-2.78v-2.192c0-1.535 1.246-2.78 2.78-2.78h8.117c1.536 0 2.78 1.245 2.78 2.78V42.639z" fill="#ffffff" data-fill-palette-color="accent"></path><path d="M94.727 42.639c0 1.536-1.246 2.78-2.78 2.78H83.83c-1.537 0-2.781-1.245-2.781-2.78v-2.192c0-1.535 1.244-2.78 2.781-2.78h8.116c1.534 0 2.78 1.245 2.78 2.78V42.639z" fill="#ffffff" data-fill-palette-color="accent"></path></g></svg></g></svg></g></svg></g></svg></g><defs></defs></svg><rect width="395.52" height="144.9932445389291" fill="none" stroke="none" visibility="hidden"></rect></g></svg></g></svg>